<svg width="320" height="218" viewBox="0 0 320 218" fill="none" xmlns="http://www.w3.org/2000/svg">
<g clip-path="url(#clip0_2738_1523)">
<path d="M79.9346 0H80.0654C124.204 0 160 34.8546 160 77.8335V82.1665C160 125.145 124.204 160 80.0654 160H79.9346C35.7955 160 0 125.145 0 82.1665V77.8335C0 34.8546 35.7955 0 79.9346 0Z" fill="#232323"/>
<path d="M114.193 60.216C113.931 60.5028 113.604 60.7258 113.244 60.8532C112.884 61.0125 112.492 61.0762 112.099 61.0762H37.9886C35.371 61.0762 34.0295 57.8902 35.8618 55.9787L48.0336 43.394C48.2954 43.1073 48.6226 42.8843 49.0152 42.725C49.3751 42.5657 49.7678 42.502 50.1604 42.502H124.565C127.216 42.502 128.524 45.7198 126.659 47.6314L114.193 60.216ZM114.193 116.48C113.637 117.022 112.884 117.341 112.099 117.341H37.9886C35.371 117.341 34.0295 114.218 35.8618 112.371L48.0336 100.073C48.2954 99.7859 48.6553 99.5629 49.0152 99.4354C49.3751 99.2761 49.7678 99.2124 50.1604 99.2124H124.565C127.216 99.2124 128.524 102.367 126.659 104.214L114.193 116.48ZM114.193 71.7174C113.637 71.1758 112.884 70.8572 112.099 70.8572H37.9886C35.371 70.8572 34.0295 73.9795 35.8618 75.8273L48.0336 88.1252C48.2954 88.4119 48.6553 88.635 49.0152 88.7624C49.3751 88.9217 49.7678 88.9854 50.1604 88.9854H124.565C127.216 88.9854 128.524 85.8313 126.659 83.9834L114.193 71.7174Z" fill="url(#paint0_linear_2738_1523)"/>
<path d="M239.935 0H240.065C284.204 0 320 34.8546 320 77.8335V82.1665C320 125.145 284.204 160 240.065 160H239.935C195.796 160 160 125.145 160 82.1665V77.8335C160 34.8546 195.796 0 239.935 0Z" fill="#232323"/>
<path d="M274.193 60.216C273.931 60.5028 273.604 60.7258 273.244 60.8532C272.884 61.0125 272.492 61.0762 272.099 61.0762H197.989C195.371 61.0762 194.03 57.8902 195.862 55.9787L208.034 43.394C208.295 43.1073 208.623 42.8843 209.015 42.725C209.375 42.5657 209.768 42.502 210.16 42.502H284.565C287.216 42.502 288.524 45.7198 286.659 47.6314L274.193 60.216ZM274.193 116.48C273.637 117.022 272.884 117.341 272.099 117.341H197.989C195.371 117.341 194.03 114.218 195.862 112.371L208.034 100.073C208.295 99.7859 208.655 99.5629 209.015 99.4354C209.375 99.2761 209.768 99.2124 210.16 99.2124H284.565C287.216 99.2124 288.524 102.367 286.659 104.214L274.193 116.48ZM274.193 71.7174C273.637 71.1758 272.884 70.8572 272.099 70.8572H197.989C195.371 70.8572 194.03 73.9795 195.862 75.8273L208.034 88.1252C208.295 88.4119 208.655 88.635 209.015 88.7624C209.375 88.9217 209.768 88.9854 210.16 88.9854H284.565C287.216 88.9854 288.524 85.8313 286.659 83.9834L274.193 71.7174Z" fill="url(#paint1_linear_2738_1523)"/>
<path d="M159.935 138H160.065C204.204 138 240 172.855 240 215.834V220.166C240 263.145 204.204 298 160.065 298H159.935C115.796 298 80 263.145 80 220.166V215.834C80 172.855 115.796 138 159.935 138Z" fill="#232323"/>
<path d="M194.193 198.216C193.931 198.503 193.604 198.726 193.244 198.853C192.884 199.013 192.492 199.076 192.099 199.076H117.989C115.371 199.076 114.03 195.89 115.862 193.979L128.034 181.394C128.295 181.107 128.623 180.884 129.015 180.725C129.375 180.566 129.768 180.502 130.16 180.502H204.565C207.216 180.502 208.524 183.72 206.659 185.631L194.193 198.216ZM194.193 254.48C193.637 255.022 192.884 255.341 192.099 255.341H117.989C115.371 255.341 114.03 252.218 115.862 250.371L128.034 238.073C128.295 237.786 128.655 237.563 129.015 237.435C129.375 237.276 129.768 237.212 130.16 237.212H204.565C207.216 237.212 208.524 240.367 206.659 242.214L194.193 254.48ZM194.193 209.717C193.637 209.176 192.884 208.857 192.099 208.857H117.989C115.371 208.857 114.03 211.979 115.862 213.827L128.034 226.125C128.295 226.412 128.655 226.635 129.015 226.762C129.375 226.922 129.768 226.985 130.16 226.985H204.565C207.216 226.985 208.524 223.831 206.659 221.983L194.193 209.717Z" fill="url(#paint2_linear_2738_1523)"/>
</g>
<defs>
<linearGradient id="paint0_linear_2738_1523" x1="40.673" y1="118.275" x2="119.534" y2="39.4249" gradientUnits="userSpaceOnUse">
<stop stop-color="#CF41E8"/>
<stop offset="1" stop-color="#10F2B0"/>
</linearGradient>
<linearGradient id="paint1_linear_2738_1523" x1="200.673" y1="118.275" x2="279.534" y2="39.4249" gradientUnits="userSpaceOnUse">
<stop stop-color="#CF41E8"/>
<stop offset="1" stop-color="#10F2B0"/>
</linearGradient>
<linearGradient id="paint2_linear_2738_1523" x1="120.673" y1="256.275" x2="199.534" y2="177.425" gradientUnits="userSpaceOnUse">
<stop stop-color="#CF41E8"/>
<stop offset="1" stop-color="#10F2B0"/>
</linearGradient>
<clipPath id="clip0_2738_1523">
<rect width="320" height="218" fill="white"/>
</clipPath>
</defs>
</svg>
